<svg xmlns="http://www.w3.org/2000/svg" xmlns:xlink="http://www.w3.org/1999/xlink" version="1.1" id="Layer_1" x="0px" y="0px" width="100px" height="100px" viewBox="0 0 100 100" enable-background="new 0 0 100 100" xml:space="preserve">
<path d="M42.783,20.881c0.126,0,0.254-0.018,0.379-0.056c0.549-0.166,0.824-0.653,0.615-1.089c-0.534-1.111-0.769-2.014-0.818-2.803  c-0.762,0.157-1.457,0.349-2.08,0.562c0.113,0.826,0.389,1.758,0.909,2.842C41.951,20.673,42.354,20.881,42.783,20.881z"/>
<path d="M43.351,5.548c-0.206-0.437-0.819-0.658-1.37-0.494c-0.55,0.164-0.829,0.649-0.623,1.086  c1.667,3.532,0.99,5.254,0.274,7.078c-0.126,0.319-0.252,0.642-0.368,0.974c0.763-0.206,1.571-0.371,2.408-0.496  C44.425,11.781,45.266,9.605,43.351,5.548z"/>
<path d="M47.464,20.881c0.126,0,0.254-0.018,0.379-0.056c0.548-0.166,0.824-0.653,0.615-1.089c-0.635-1.323-0.848-2.35-0.827-3.241  c-0.05,0-0.097-0.002-0.147-0.002c-0.691,0-1.353,0.03-1.985,0.081c-0.006,1.044,0.247,2.256,0.971,3.763  C46.632,20.673,47.035,20.881,47.464,20.881z"/>
<path d="M48.456,13.436c0.721-1.854,1.405-4.012-0.424-7.887c-0.206-0.437-0.819-0.658-1.369-0.494  c-0.55,0.164-0.83,0.649-0.624,1.086c1.667,3.532,0.99,5.254,0.274,7.078c-0.03,0.076-0.059,0.152-0.09,0.229  c0.417-0.02,0.838-0.03,1.261-0.03C47.809,13.417,48.132,13.424,48.456,13.436z"/>
<path d="M51.151,20.336c0.162,0.336,0.565,0.544,0.994,0.544c0.126,0,0.253-0.018,0.378-0.056c0.55-0.166,0.826-0.653,0.615-1.089  c-0.519-1.08-0.755-1.962-0.812-2.735c-0.662-0.148-1.379-0.27-2.146-0.358C50.186,17.671,50.443,18.862,51.151,20.336z"/>
<path d="M53.025,13.72c0.755-1.92,1.609-4.097-0.312-8.171c-0.206-0.437-0.818-0.659-1.369-0.494  c-0.55,0.164-0.829,0.649-0.624,1.086c1.667,3.532,0.991,5.254,0.273,7.078c-0.053,0.137-0.107,0.275-0.161,0.414  c0.712,0.092,1.41,0.214,2.083,0.367C52.952,13.907,52.988,13.814,53.025,13.72z"/>
<path d="M42.959,16.933c0.778-0.159,1.627-0.283,2.541-0.359c0.005-1.202,0.354-2.18,0.724-3.126  c-0.873,0.042-1.727,0.125-2.551,0.249c-0.002,0.008-0.005,0.017-0.009,0.024C43.256,14.757,42.883,15.709,42.959,16.933z"/>
<path d="M47.631,16.495c0.901,0.005,1.752,0.058,2.549,0.148c-0.007-1.155,0.304-2.104,0.652-3.01  c-0.779-0.102-1.576-0.167-2.377-0.197c-0.037,0.095-0.074,0.19-0.111,0.284C47.987,14.63,47.655,15.474,47.631,16.495z"/>
<path d="M68.488,58.522c-1.158,0-2.124,0.824-2.346,1.918l-3.453,3.451c-0.999-1.546-2.243-2.95-3.705-4.159V23.385  c1.152-1.213,1.382-2.433,1.382-3.21c0-3.148-3.267-5.232-7.45-6.175c-0.368,0.951-0.676,1.855-0.59,3.001  c3.449,0.771,5.434,2.249,5.434,3.174c0,1.298-3.901,3.683-10.275,3.683S37.21,21.473,37.21,20.175c0-0.753,1.317-1.873,3.669-2.68  c-0.177-1.302,0.054-2.342,0.385-3.303c-0.874,0.236-1.69,0.522-2.433,0.856c-3.679,1.66-4.229,3.924-4.229,5.127  c0,1.11,0.406,2.088,1.114,2.93v36.628c-4.205,3.478-6.6,8.547-6.6,14.038c0,4.478,1.639,8.783,4.615,12.124  c0.601,0.675,1.249,1.299,1.934,1.869l-1.251,6.476c-0.075,0.391,0.028,0.794,0.281,1.101c0.253,0.306,0.629,0.482,1.026,0.482  h23.39c0.398,0,0.773-0.177,1.027-0.482c0.252-0.307,0.355-0.71,0.281-1.101l-1.271-6.57c0.688-0.582,1.336-1.218,1.938-1.904  c2.899-3.321,4.498-7.58,4.498-11.994c0-2.116-0.356-4.167-1.033-6.092l4.414-4.415c1.094-0.222,1.918-1.188,1.918-2.347  C70.883,59.595,69.811,58.522,68.488,58.522z M58.459,73.771l-9.697,9.697c-0.389,0.389-0.9,0.584-1.412,0.584  c-0.511,0-1.022-0.195-1.411-0.584c-0.78-0.78-0.78-2.045,0-2.824l6.874-6.873H32.444c0-4.721,2.165-9.061,5.939-11.907  c0.462-0.352,0.69-0.893,0.657-1.433c0.001-0.023,0.003-0.048,0.003-0.072v-34.96c2.369,1.016,5.414,1.535,8.44,1.535  c3.03,0,5.906-0.504,8.172-1.424v34.85c0,0.024,0.004,0.047,0.004,0.07c-0.033,0.54,0.193,1.083,0.658,1.435  c1.635,1.232,2.966,2.745,3.953,4.449l-7.459,7.458H58.459l3.408-3.41c0.256,1.104,0.39,2.244,0.39,3.41H58.459z"/>
</svg>