<svg xmlns="http://www.w3.org/2000/svg" xmlns:xlink="http://www.w3.org/1999/xlink" version="1.1" x="0px" y="0px" width="100px" height="100px" viewBox="0 0 100 100" enable-background="new 0 0 100 100" xml:space="preserve">
<g id="Your_Icon" display="none">
	<path display="inline" fill="#000000" d="M91.876,62.75L26.317,34.473L22.235,15.75c5.693,1.813,67.508,21.488,71.155,22.769   c-0.146,0.827-0.307,3.417-0.703,11.747C92.446,55.342,91.935,61.381,91.876,62.75z"/>
	<g display="inline">
		<polygon fill="#000000" points="76.321,84.951 91.642,67.943 91.987,64.127 76.321,80.094   "/>
		<polygon fill="#000000" points="8.151,48.928 75.819,85.182 75.819,80.096 7.604,45.641   "/>
	</g>
	<path display="inline" fill="none" d="M20.395,40.606"/>
	<g display="inline">
		<polygon fill="none" points="81.507,73.203 86.241,68.418 85.161,67.818 80.55,72.742   "/>
		
			<rect x="21.757" y="51.813" transform="matrix(-0.9133 -0.4072 0.4072 -0.9133 84.3163 121.8207)" fill="none" width="66.729" height="0.25"/>
		
			<rect x="21.859" y="51.582" transform="matrix(-0.9133 -0.4072 0.4072 -0.9133 84.6037 121.4227)" fill="none" width="66.729" height="0.252"/>
		<g>
			<path fill="none" d="M19.017,42.697l61.24,29.623l6.197-6.617l1.309-2.844L25.747,36.143l-1.615,1.979l-1.852,1.024l-0.524-0.284     l-0.725-0.395l-0.12-0.024c-0.41,0-3.459,1.741-5.242,2.78l-0.417,0.243l1.462,0.674l1.874,0.863L19.017,42.697z"/>
			<polygon fill="none" points="81.507,73.203 86.241,68.418 85.161,67.818 80.55,72.742    "/>
			<g>
				<path fill="none" d="M85.161,67.818l1.686-1.801l1.59-3.414L25.77,35.606l-0.176-0.076l-1.749,2.176l-2.09,1.156l-0.725-0.395      l-0.12-0.024c-0.403,0-3.353,1.68-5.146,2.725l65.927,31.846l4.549-4.596L85.161,67.818z"/>
				<polygon fill="none" points="80.37,72.934 80.37,72.934 80.231,72.867     "/>
				<path fill="#000000" d="M20.911,38.443l0.12,0.024l0.725,0.395l2.09-1.156l1.749-2.176l0.176,0.076l62.667,26.998l-1.59,3.414      l-1.686,1.801l1.08,0.6l-4.549,4.596l0.504,0.244l9.68-9.867c-0.168-0.076-0.41-0.184-0.709-0.316      C83.083,59.51,28.82,36.261,25.948,35.03l-10.625,5.923l0.443,0.215C17.559,40.123,20.508,38.443,20.911,38.443z"/>
				<g>
					<polygon fill="#000000" points="80.231,72.867 14.787,41.252 7.889,45.098 8.652,45.482 76.05,79.523 81.825,73.637        80.37,72.934      "/>
				</g>
			</g>
			<polygon fill="#000000" points="85.161,67.818 86.847,66.018 85.161,67.818    "/>
		</g>
		<g>
			<polygon fill="none" points="24.7,38.236 24.598,38.465 85.544,65.639 85.646,65.41 85.747,65.18 24.803,38.007    "/>
			<g>
				<polygon fill="none" points="24.7,38.236 24.598,38.465 85.544,65.639 85.646,65.41 85.747,65.18 24.803,38.007     "/>
				<path fill="none" d="M25.77,35.606l-0.176-0.076l-1.749,2.176l-2.09,1.156l-0.725-0.395l-0.12-0.024      c-0.41,0-3.459,1.741-5.242,2.78l-0.417,0.243l1.462,0.674L80.37,72.934l0.18-0.191l-0.236-0.115l4.639-4.926l0.209,0.117      l1.686-1.801l1.59-3.414L25.77,35.606z M86.454,65.703l-6.197,6.617l-61.24-29.623l-1.651-0.832l4.946-2.737l1.82-1.007      l1.615-1.979l62.016,26.717L86.454,65.703z"/>
				<path fill="#000000" d="M25.747,36.158l-1.615,1.979l-0.919,0.5l0.919-0.516l-1.852,1.024l0.014,0.007l-4.928,2.728l1.651,0.817      l61.24,29.623l6.197-6.617l1.309-2.844L25.747,36.158z M85.646,65.41l-0.102,0.229L24.598,38.465l0.102-0.229l0.104-0.229      L85.747,65.18L85.646,65.41z"/>
			</g>
		</g>
	</g>
</g>
<g id="Layer_2">
	<path fill="#000000" d="M91.876,64.75L26.317,36.473L22.235,17.75c5.693,1.813,67.508,21.488,71.155,22.769   c-0.146,0.827-0.307,3.417-0.703,11.747C92.446,57.342,91.935,63.381,91.876,64.75z"/>
	<g>
		<polygon fill="#000000" points="76.321,86.951 91.642,69.943 91.987,66.127 76.321,82.094   "/>
		<polygon fill="#000000" points="8.151,50.928 75.819,87.182 75.819,82.096 7.604,47.641   "/>
	</g>
	<path fill="#000000" d="M20.911,40.443l0.12,0.024l0.725,0.395l2.09-1.156l1.749-2.176l0.176,0.076l62.667,26.998l-1.59,3.414   l-1.686,1.801l1.08,0.6l-4.549,4.596l0.504,0.244l9.68-9.867c-0.168-0.076-0.41-0.184-0.709-0.316   C83.083,61.51,28.82,38.261,25.948,37.03l-10.625,5.923l0.443,0.215C17.559,42.123,20.508,40.443,20.911,40.443z"/>
	<g>
		<polygon fill="#000000" points="80.231,74.867 14.787,43.252 7.889,47.098 8.652,47.482 76.05,81.523 81.825,75.637 80.37,74.934       "/>
	</g>
	<path fill="#000000" d="M25.747,38.158l-1.615,1.979l-0.919,0.5l0.919-0.516l-1.852,1.024l0.014,0.007l-4.928,2.728l1.651,0.817   l61.24,29.623l6.197-6.617l1.309-2.844L25.747,38.158z M85.646,67.41l-0.102,0.229L24.598,40.465l0.102-0.229l0.104-0.229   L85.747,67.18L85.646,67.41z"/>
</g>
</svg>